<svg xmlns="http://www.w3.org/2000/svg" width="400" height="190" viewBox="0 0 400 190"><rect width="398.5" height="188.5" x=".8" y=".8" fill="#1E1616" stroke="#472F2F" stroke-width="1.5" rx="6"/><g fill="none" stroke="#F2A76E" stroke-linecap="round" stroke-linejoin="round" stroke-width="2.6" transform="translate(24 24)"><circle cx="20" cy="20" r="17"/><circle cx="20" cy="11.5" r="2.2"/><path d="m11.5 16.5 8.5 2 8.5-2m-8.5 2V25m0 0-4.5 8m4.5-8 4.5 8"/></g><path fill="#F7F2ED" d="m78.4 54 6.1-19.1h6l6 19.1H92l-4.3-15.8h-.4L82.9 54zm3.6-3.7v-2.8h11.5v2.8zm22.7 4.1q-1.9 0-3.3-.6-1.5-.6-2.4-1.6-.9-1.1-1.4-2.5t-.4-3.1.4-3.3 1.4-2.6q.9-1.1 2.3-1.7t3.3-.6 3.3.6q1.3.7 2.1 1.9t.9 2.7l-3.8 1q0-1-.4-1.6-.3-.7-.9-1.1-.6-.3-1.4-.3t-1.3.3-1 .9l-.5 1.5q-.3.9-.3 2.1 0 1.5.4 2.6t1.1 1.7q.8.6 1.9.6t1.7-.5.9-1.2.3-1.6l3.8.7q-.1 1.1-.5 2.1-.4 1.1-1.2 1.9t-2.1 1.2-2.9.5m15.3 0q-1.9 0-3.3-.6-1.5-.6-2.4-1.6-.9-1.1-1.4-2.5t-.4-3.1.4-3.3q.5-1.5 1.4-2.6 1-1.1 2.3-1.7 1.4-.6 3.3-.6t3.3.6q1.3.7 2.1 1.9t.9 2.7l-3.8 1q0-1-.4-1.6-.3-.7-.9-1.1-.6-.3-1.4-.3t-1.3.3-.9.9-.6 1.5-.2 2.1q0 1.5.3 2.6.4 1.1 1.2 1.7t1.8.6 1.7-.5.9-1.2l.4-1.6 3.7.7q-.1 1.1-.5 2.1-.4 1.1-1.2 1.9t-2 1.2-3 .5m15.3 0q-1.9 0-3.3-.6t-2.3-1.5q-1-1-1.4-2.5-.5-1.4-.5-3.2 0-1.7.4-3.2t1.4-2.6q.9-1.2 2.3-1.8t3.1-.6q1.8 0 3.1.6t2.1 1.7 1.3 2.7q.3 1.6.2 3.7l-11.2.1V45l8.5-.2-1.2 1.2q.2-1.5-.1-2.5t-1-1.4q-.7-.5-1.6-.5-1.1 0-1.8.6t-1.1 1.6q-.4 1.1-.4 2.7 0 2.5.9 3.7 1 1.1 2.6 1.1.8 0 1.3-.2l.8-.5.5-.9.3-.9 3.6.6q-.1 1-.5 1.9t-1.2 1.6-2 1.1-2.8.4m14.9 0q-1.6 0-2.8-.3-1.2-.4-2.1-1t-1.3-1.4q-.5-.9-.6-2l3.3-.9q.1.7.6 1.3t1.2.9q.8.4 1.9.4 1.2 0 1.8-.4t.7-1.1q0-.6-.4-.9t-1.1-.6-1.8-.5l-2.1-.6-2-.9q-.8-.5-1.4-1.3t-.5-2.1.7-2.4q.8-1.1 2.2-1.7t3.4-.5q1.8 0 3.2.5t2.3 1.6q.8 1 1 2.4l-3.5.9q0-.7-.4-1.3-.4-.5-1.1-.8-.6-.3-1.6-.3-1.1 0-1.7.4t-.6 1.1q0 .5.4.8t1.2.6 1.8.5l2.1.6q1.1.3 1.9.9.9.5 1.4 1.3t.5 2q0 1.5-.8 2.6-.7 1-2.2 1.6t-3.6.6m14.8 0q-1.5 0-2.7-.3-1.3-.4-2.1-1t-1.4-1.4q-.4-.9-.5-2l3.3-.9q.1.7.5 1.3t1.2.9 2 .4 1.8-.4.7-1.1-.4-.9-1.1-.6-1.8-.5l-2.2-.6-1.9-.9q-.9-.5-1.4-1.3t-.5-2.1.7-2.4 2.2-1.7q1.4-.5 3.3-.5t3.3.5 2.2 1.6q.9 1 1 2.4l-3.4.9q0-.7-.4-1.3-.4-.5-1.1-.8t-1.6-.3q-1.1 0-1.7.4t-.6 1.1q0 .5.4.8t1.1.6l1.9.5 2.1.6q1 .3 1.9.9.8.5 1.4 1.3t.5 2q0 1.5-.8 2.6-.8 1-2.2 1.6t-3.7.6m8.8-.4V38.8h4.2V54zm2.1-17.2q-1.2 0-1.9-.5t-.6-1.5q0-1 .7-1.5t1.8-.5q1.3 0 1.9.5t.6 1.5q0 .9-.6 1.5t-1.9.5m13.9 17.6q-1.3 0-2.3-.6t-1.6-1.6q-.7-1.1-.9-2.6h-.5V54h-3.4V33.5h4.1V38l-.1 1.6-.2 1.7-.4 1.9h.6q.3-1.5.9-2.6t1.6-1.6q1-.6 2.3-.6 1.8 0 3.1 1t2 2.7.7 4.3-.7 4.3q-.8 1.8-2.1 2.7t-3.1 1m-1.4-3.4q.9 0 1.6-.5t1.1-1.6.3-2.5-.3-2.4q-.4-1.1-1.1-1.6-.6-.6-1.5-.6-.7 0-1.2.2t-.9.8l-.7 1-.4 1.2-.1 1.2v.4q0 .8.2 1.5.2.8.6 1.4.4.7 1 1.1t1.4.4m9.7 3V38.8h4.1V54zm2.1-17.2q-1.3 0-1.9-.5t-.6-1.5.6-1.5 1.9-.5 1.8.5q.7.5.7 1.5t-.7 1.5-1.8.5m5.1 17.2V33.5h4.1V54zm7.2 0V38.8h4.1V54zm2-17.2q-1.2 0-1.8-.5t-.7-1.5.7-1.5q.6-.5 1.8-.5t1.9.5.7 1.5q0 .9-.7 1.5t-1.9.5m10.7 17.5q-2.4 0-3.6-1.3t-1.3-4.2V42h-1.9v-3.1h1.2q1-.1 1.5-.4t.6-1.3l.3-1.8h2.3v3.4h3.6v3.3h-3.6v6.4q0 1.1.5 1.5.5.5 1.4.5l1-.1.8-.3v3.8l-1.5.4zm10.5 4.7-2.3-.2q-1.1-.2-2.1-.6t-1.7-1.1l1.2-3.6q.9 1 2.1 1.4t2.6.4 2.4-.6 1.5-1.9.6-3.1l.1-2.5h-.5q-.3 1.9-.9 3.1t-1.6 1.8-2.3.6q-1.6 0-2.6-.8-1.1-.8-1.6-2.4-.5-1.7-.5-4.1v-6.6h4.1v5.6q0 2.5.6 3.7.5 1.1 1.7 1.1.6 0 1.1-.4.5-.3.9-1l.5-1.6q.2-1 .2-2.3v-5.1h4.1v11.1q0 1.7-.3 3.2-.3 1.4-.9 2.5t-1.5 1.8q-.9.8-2.1 1.2t-2.8.4"/><path fill="#C7B4B0" d="M40.5 104 37 92l-.4-1.4-.4 1.4-3.5 12h-2.6l-5.2-16.3h2.4l3.8 12.7.4 1.3.3-1.3 3.7-12.7h2.4l3.7 12.7.3 1.3.3-1.3L46 87.7h2.3L43.1 104zm23.3-11.6h-2.3q-.4-1.5-1.6-2.3t-2.8-.8q-2.4 0-3.7 1.7-1.4 1.8-1.4 4.9 0 3 1.4 4.8t3.7 1.7q1.5 0 2.7-.8 1.1-.7 1.6-2.2h2.4q-.7 2.3-2.5 3.6t-4.2 1.3q-3.4 0-5.4-2.3-1.9-2.2-1.9-6.1t1.9-6.2 5.5-2.3q2.4 0 4.2 1.3t2.4 3.7M77.7 104l-1.6-3.9h-7.8l-1.5 3.9h-2.2L71 87.7h2.5L80 104zm-6-12.7-2.7 7h6.5l-2.8-7-.5-1.5zM94.8 104h-1.7l-.1-2.6q-1.5 2.9-5 2.9-3.4 0-5.3-2.3t-1.9-6.1q0-3.9 1.9-6.2 2-2.3 5.5-2.3 2.4 0 4.2 1.3t2.4 3.7h-2.3q-.4-1.5-1.6-2.3t-2.8-.8q-2.4 0-3.7 1.7-1.4 1.8-1.4 4.9 0 3 1.4 4.8t3.8 1.7q1.9 0 3.1-1.2 1.3-1.3 1.4-3.8h-4.2v-1.8h6.3zm7.8 0v-.6q0-1.4.5-2.5t1.2-1.9q.7-.7 1.7-1.3l1.8-1.1 1.7-1q.7-.5 1.2-1.2t.4-1.5q0-1.3-.7-2.1-.8-.7-2.2-.7-3 0-3.4 2.9h-2.2q.3-2.2 1.7-3.5 1.5-1.2 3.9-1.2 2.5 0 3.8 1.3 1.3 1.2 1.3 3.3 0 1.4-.8 2.4-.8 1.1-2 1.8l-2.3 1.4q-1.2.7-2.2 1.6t-1.2 2.2h8.7v1.7zm13.8 0v-2.6h2.6v2.6zm5.5 0v-.6q0-1.4.5-2.5t1.2-1.9q.7-.7 1.7-1.3l1.8-1.1 1.6-1q.8-.5 1.3-1.2t.4-1.5q0-1.3-.7-2.1-.8-.7-2.2-.7-3 0-3.4 2.9h-2.2q.3-2.2 1.7-3.5 1.5-1.2 3.9-1.2 2.5 0 3.8 1.3 1.3 1.2 1.3 3.3 0 1.4-.8 2.4-.8 1.1-2 1.8l-2.3 1.4q-1.2.7-2.2 1.6t-1.2 2.2h8.7v1.7zm30 0-1.6-3.9h-7.8L141 104h-2.2l6.4-16.3h2.5l6.5 16.3zm-6-12.7-2.7 7h6.5l-2.8-7-.5-1.5zm22.3 12.7-1.5-3.9h-7.8l-1.6 3.9h-2.2l6.4-16.3h2.6l6.4 16.3zm-5.9-12.7-2.8 7h6.5l-2.8-7-.4-1.5zm25 4.3h-2.1q-.3-1.4-1.1-2.1t-2.2-.7q-1.8 0-2.7 1.2-.9 1.3-.9 3.6 0 2.4.9 3.6t2.7 1.3q1.3 0 2.2-.7t1.2-2h2.1q-.4 2.3-1.9 3.4-1.4 1.1-3.6 1.1-2.7 0-4.3-1.8t-1.5-4.9q0-3.2 1.5-4.9 1.6-1.8 4.3-1.8 2.2 0 3.6 1.3 1.5 1.2 1.8 3.4m2.7 8.4V86.7h2.1V93q1.3-2.1 4-2.1 2 0 3.1 1.2t1.2 3.4v8.5h-2.1v-8.1q0-1.5-.7-2.3-.7-.9-2.1-.9t-2.5 1.2q-.9 1.1-.9 2.6v7.5zm24.8-4.2q-.6 2.2-2.1 3.4t-3.7 1.1q-2.8 0-4.3-1.8-1.6-1.7-1.6-4.9t1.5-4.9 4.3-1.8 4.2 1.8q1.6 1.7 1.6 4.8v.5h-9.5q.1 2.1 1.1 3.3t2.7 1.2q2.9 0 3.5-2.7zm-5.9-7q-3.1 0-3.6 3.6h7.1q-.2-1.7-1.1-2.7-.9-.9-2.4-.9m19.1 2.8h-2.1q-.3-1.4-1.1-2.1t-2.2-.7q-1.8 0-2.7 1.2-.9 1.3-.9 3.6 0 2.4.9 3.6t2.7 1.3q1.3 0 2.2-.7t1.2-2h2.1q-.4 2.3-1.9 3.4-1.4 1.1-3.6 1.1-2.7 0-4.2-1.8-1.6-1.8-1.6-4.9t1.6-4.9 4.2-1.8q2.2 0 3.6 1.3 1.5 1.2 1.8 3.4m2.7 8.4V86.7h2.1v10l5.5-5.4h2.6l-5.8 5.6 6.1 7.1h-2.6l-5.8-6.5v6.5zm13.4-9.5q0 1 .9 1.5t2.1.6l2.4.5q1.2.2 2.1 1 .8.8.8 2.3 0 1.8-1.4 2.8-1.4 1.1-3.7 1.1t-3.8-1.1-1.8-3.4h2.1q.2 1.4 1.1 2.1t2.5.7q1.4 0 2.1-.6t.8-1.5q0-.8-.6-1.2-.6-.5-1.5-.7l-2-.3-2-.5q-.9-.3-1.5-1.1t-.6-2q0-1.6 1.2-2.7t3.4-1.1 3.6 1.1 1.7 3.4h-2.2q-.2-1.5-1-2.1t-2.2-.6q-1.1 0-1.8.5t-.7 1.3m26.7 9.5-2.8-9.5-.3-1.5-.3 1.5-2.7 9.5h-2.6l-3.8-12.7h2.3l2.6 9.8.3 1.3.3-1.3 2.9-9.8h2.3l2.9 9.8.3 1.3.2-1.3 2.7-9.8h2.1l-3.8 12.7zm8.4-14.4v-2.9h2.1v2.9zm0 14.4V91.3h2.1V104zm5.7-3.7v-7.4h-1.7v-1.6h1.7v-3h2.1v3h2.8v1.6H287v7.4q0 1.2.5 1.8.5.5 1.9.5h.4v1.5q-.4.2-1.4.2-1.7 0-2.6-1t-.9-3m7 3.7V86.7h2.1V93q1.3-2.1 3.9-2.1 2.1 0 3.2 1.2t1.1 3.4v8.5h-2.1v-8.1q0-1.5-.7-2.3-.7-.9-2.1-.9t-2.4 1.2q-.9 1.1-.9 2.6v7.5zm20.4-8.6h-2.1q.3-2.1 1.7-3.3t3.7-1.2q2.5 0 3.8 1.4t1.3 3.6v5q0 2.2.4 3.1h-2.2q-.3-.6-.3-2-.8 1.1-2 1.7t-2.4.6q-2 0-3.2-.9t-1.2-2.8q0-2.7 2.8-3.6 2.1-.7 6-.8V96q0-3.2-3.2-3.2-2.6 0-3.1 2.6m-.3 5.2q0 .9.6 1.4t1.8.5q1.8 0 3-1.2t1.2-2.9v-.6q-3.8.1-5.2.8t-1.4 2m20.2 3.4-3-4.2-.6-1-.7 1-2.9 4.2h-2.4l4.8-6.6-4.5-6.1h2.7l2.6 3.7.7 1 .6-1 2.6-3.7h2.4l-4.5 6.1 4.9 6.6zm15.1-4.2q-.5 2.2-2 3.4t-3.7 1.1q-2.8 0-4.4-1.8-1.5-1.7-1.5-4.9t1.5-4.9q1.6-1.8 4.3-1.8t4.2 1.8 1.5 4.8v.5h-9.4q.1 2.1 1.1 3.3t2.7 1.2q2.8 0 3.5-2.7zm-5.8-7q-3.1 0-3.6 3.6h7.1q-.2-1.7-1.1-2.7-.9-.9-2.4-.9m7.8 11.2v-2.6h2.6v1.4q0 2.9-1.2 5.2h-1.2q.9-2.3.9-4zM25.7 135v-17.3h2.1v10l5.5-5.4h2.6l-5.8 5.6 6.1 7.1h-2.7l-5.7-6.5v6.5zm22.5-4.2q-.5 2.2-2 3.4t-3.7 1.1q-2.8 0-4.4-1.8-1.6-1.7-1.6-4.9t1.6-4.9q1.5-1.8 4.2-1.8t4.3 1.8 1.5 4.8v.5h-9.4q.1 2.1 1.1 3.3t2.7 1.2q2.8 0 3.5-2.7zm-5.9-7q-3.1 0-3.5 3.6h7.1q-.2-1.7-1.2-2.7-.9-.9-2.4-.9m8.8 16.8-1.2-.2v-1.7h.6q1.2 0 1.8-.5.5-.5 1.5-2.6l.4-1-5.2-12.3h2.3l3.4 8.4.6 1.7.6-1.7 3.3-8.4h2.2l-6 14.4q-.9 2.3-1.8 3.1t-2.5.8m14.2-5.6h-2.1v-17.3h2.1v6.1q1.3-1.9 3.6-1.9 2.5 0 4 1.8 1.4 1.8 1.4 4.9t-1.4 4.9-4 1.8q-2.3 0-3.6-1.8zm3.4-11.2q-1.6 0-2.5 1.2t-.9 3.6.9 3.6 2.5 1.3 2.6-1.3q.8-1.3.8-3.6t-.8-3.6q-.9-1.2-2.6-1.2m13.5 11.5q-2.7 0-4.3-1.8-1.5-1.7-1.5-4.9t1.5-4.9q1.6-1.8 4.3-1.8t4.3 1.8 1.5 4.9-1.5 5q-1.6 1.7-4.3 1.7m0-1.8q1.8 0 2.7-1.3 1-1.2 1-3.6 0-2.3-1-3.6-.9-1.2-2.7-1.2t-2.7 1.2-1 3.6 1 3.6q.9 1.3 2.7 1.3m10.5-7.1h-2.1q.3-2.1 1.7-3.3t3.7-1.2q2.4 0 3.7 1.4t1.3 3.6v5q0 2.2.5 3.1h-2.3q-.2-.6-.3-2-.8 1.1-1.9 1.7-1.2.6-2.4.6-2.1 0-3.3-.9t-1.2-2.8q0-2.7 2.9-3.6 2.1-.7 5.9-.8v-.2q0-3.2-3.1-3.2-2.7 0-3.1 2.6m-.4 5.2q0 .9.7 1.4t1.8.5q1.7 0 2.9-1.2t1.2-2.9v-.6q-3.8.1-5.2.8t-1.4 2m12.2 3.4v-12.7h2.1v1.9q1.3-2.3 3.8-2.3.8 0 1.2.4v1.9q-.6-.2-1.4-.2-1.8 0-2.7 1-.9 1.1-.9 2.9v7.1zm13.5.3q-2.6 0-4-1.8-1.5-1.7-1.5-4.9t1.5-4.9q1.4-1.8 4-1.8 2.2 0 3.5 1.8v-6h2.1V135h-2.1v-1.6q-1.3 1.9-3.5 1.9m.1-1.8q1.7 0 2.6-1.3.8-1.2.8-3.6 0-2.3-.9-3.6-.9-1.2-2.5-1.2t-2.5 1.2-.9 3.6.9 3.6q.9 1.3 2.5 1.3m15.7-7.1h-2.2q.4-2.1 1.7-3.3 1.4-1.2 3.7-1.2 2.5 0 3.8 1.4t1.3 3.6v5q0 2.2.4 3.1h-2.2q-.3-.6-.3-2-.8 1.1-2 1.7t-2.4.6q-2 0-3.2-.9t-1.2-2.8q0-2.7 2.8-3.6 2.2-.7 6-.8v-.2q0-3.2-3.2-3.2-2.6 0-3 2.6m-.4 5.2q0 .9.6 1.4t1.8.5q1.8 0 3-1.2t1.2-2.9v-.6q-3.8.1-5.2.8t-1.4 2m12.1 3.4v-12.7h2.1v1.7q1.4-2.1 4-2.1 2 0 3.2 1.2 1.1 1.2 1.1 3.4v8.5h-2.1v-8.1q0-1.5-.7-2.3-.7-.9-2.1-.9t-2.4 1.2-1 2.6v7.5zm18.5.3q-2.5 0-3.9-1.8-1.5-1.7-1.5-4.9t1.5-4.9q1.4-1.8 3.9-1.8 2.3 0 3.6 1.8v-6h2.1V135h-2.1v-1.6q-1.3 1.9-3.6 1.9m.2-1.8q1.7 0 2.5-1.3.9-1.2.9-3.6 0-2.3-.9-3.6-.9-1.2-2.5-1.2t-2.5 1.2-.9 3.6.9 3.6q.9 1.3 2.5 1.3m12.1-9.6v-1.6h1.8v-.9q0-2 .9-3t2.6-1q.7 0 1.1.2v1.5h-.2q-1.3 0-1.8.6t-.5 1.7v.9h2.5v1.6h-2.5V135h-2.1v-11.1zm13.3 11.4q-2.7 0-4.3-1.8-1.5-1.7-1.5-4.9t1.5-4.9q1.6-1.8 4.3-1.8t4.3 1.8 1.5 4.9-1.5 5q-1.6 1.7-4.3 1.7m0-1.8q1.8 0 2.7-1.3 1-1.2 1-3.6 0-2.3-1-3.6-.9-1.2-2.7-1.2t-2.7 1.2-1 3.6 1 3.6 2.7 1.3m19.1-6.9h-2.1q-.3-1.4-1.2-2.1t-2.1-.7q-1.8 0-2.7 1.2-.9 1.3-.9 3.6 0 2.4.9 3.6t2.7 1.3q1.3 0 2.2-.7t1.2-2h2.1q-.4 2.3-1.9 3.4-1.4 1.1-3.6 1.1-2.7 0-4.3-1.8t-1.5-4.9q0-3.2 1.5-4.9 1.6-1.8 4.3-1.8 2.1 0 3.6 1.3 1.5 1.2 1.8 3.4m10.8 3.2v-7.5h2.1V135h-2.1v-1.7q-1.3 2-3.9 2-2 0-3.1-1.2t-1.1-3.3v-8.5h2.1v8q0 1.5.7 2.4t2 .8q1.5 0 2.4-1.1t.9-2.6m7-4.3q0 1 .9 1.5t2.1.6l2.4.5q1.2.2 2.1 1 .8.8.8 2.3 0 1.8-1.4 2.8-1.4 1.1-3.7 1.1t-3.8-1.1-1.8-3.4h2.1q.2 1.4 1.2 2.1t2.4.7 2.1-.6.8-1.5-.6-1.2q-.6-.5-1.5-.7l-2-.3-2-.5q-.9-.3-1.5-1.1t-.6-2q0-1.6 1.2-2.7t3.5-1.1q2.1 0 3.5 1.1t1.7 3.4h-2.2q-.2-1.5-1-2.1t-2.2-.6q-1.1 0-1.8.5t-.7 1.3m15.6 9.5v-17.3h2.1v6.3q1.4-2.1 4-2.1 2 0 3.2 1.2 1.1 1.2 1.1 3.4v8.5h-2.1v-8.1q0-1.5-.7-2.3-.7-.9-2.1-.9t-2.4 1.2-1 2.6v7.5zm15.7-8.6h-2.1q.3-2.1 1.7-3.3t3.7-1.2q2.5 0 3.8 1.4t1.2 3.6v5q0 2.2.5 3.1h-2.2q-.3-.6-.4-2-.7 1.1-1.9 1.7t-2.4.6q-2.1 0-3.2-.9t-1.2-2.8q0-2.7 2.8-3.6 2.1-.7 5.9-.8v-.2q0-3.2-3.1-3.2-2.7 0-3.1 2.6m-.4 5.2q0 .9.7 1.4t1.8.5q1.7 0 2.9-1.2t1.2-2.9v-.6q-3.8.1-5.2.8t-1.4 2m12.2 3.4v-12.7h2.1v1.7q1.3-2.1 3.9-2.1 2.1 0 3.2 1.2t1.2 3.4v8.5h-2.2v-8.1q0-1.5-.6-2.3-.7-.9-2.1-.9t-2.5 1.2q-.9 1.1-.9 2.6v7.5zm18.5.3q-2.5 0-4-1.8-1.4-1.7-1.4-4.9t1.4-4.9q1.5-1.8 4-1.8 2.3 0 3.6 1.8v-6h2.1V135h-2.1v-1.6q-1.3 1.9-3.6 1.9m.1-1.8q1.7 0 2.6-1.3.9-1.2.9-3.6 0-2.3-.9-3.6-.9-1.2-2.6-1.2-1.6 0-2.5 1.2-.9 1.3-.9 3.6t.9 3.6 2.5 1.3m8.9 1.5v-17.3h2.2V135zm5.5-14.4v-2.9h2.1v2.9zm0 14.4v-12.7h2.1V135zm5.5 0v-12.7h2.1v1.7q1.3-2.1 3.9-2.1 2.1 0 3.2 1.2t1.2 3.4v8.5h-2.2v-8.1q0-1.5-.7-2.3-.6-.9-2-.9-1.6 0-2.5 1.2t-.9 2.6v7.5zm18.3.1q-2.5 0-3.9-1.7-1.3-1.8-1.3-4.9t1.3-4.8 3.9-1.8 3.8 1.7v-1.3h2.1v13.1q0 2.5-1.5 3.9-1.4 1.3-3.7 1.3t-3.8-1.1-1.8-3.3h2.1q.2 1.3 1.1 2t2.3.6 2.3-.8.9-2.5v-2.2q-1.4 1.8-3.8 1.8m.3-1.8q1.7 0 2.6-1.3.9-1.2.9-3.5t-.9-3.5-2.6-1.2q-1.6 0-2.5 1.2t-.9 3.5.9 3.5q.9 1.3 2.5 1.3m8.7 1.7v-2.6h2.6v1.4q0 2.9-1.2 5.2h-1.2q.9-2.3.9-4zM36.2 157.6h-2.1q-.2-1.4-1.1-2.1t-2.2-.7q-1.8 0-2.7 1.2-.9 1.3-.9 3.6 0 2.4 1 3.6t2.7 1.3q1.3 0 2.1-.7t1.2-2h2.1q-.4 2.3-1.8 3.4-1.5 1.1-3.7 1.1-2.7 0-4.2-1.8-1.6-1.8-1.6-4.9t1.6-4.9q1.5-1.8 4.2-1.8 2.2 0 3.7 1.3 1.4 1.2 1.7 3.4m7.9 8.7q-2.7 0-4.3-1.8-1.5-1.7-1.5-4.9t1.5-4.9q1.6-1.8 4.3-1.8t4.3 1.8 1.5 4.9-1.5 5q-1.6 1.7-4.3 1.7m0-1.8q1.8 0 2.7-1.3 1-1.2 1-3.6 0-2.3-1-3.6-.9-1.2-2.7-1.2t-2.7 1.2q-1 1.3-1 3.6t1 3.6 2.7 1.3m8.6 1.5v-12.7h2.1v1.7q1.3-2.1 3.9-2.1 2.1 0 3.2 1.2t1.1 3.4v8.5h-2.1v-8.1q0-1.5-.7-2.3-.7-.9-2.1-.9t-2.4 1.2q-.9 1.1-.9 2.6v7.5zm14-3.7v-7.4h-1.8v-1.6h1.8v-3h2.1v3h2.8v1.6h-2.8v7.4q0 1.2.5 1.8.5.5 1.8.5h.4v1.5q-.3.2-1.3.2-1.8 0-2.7-1-.8-1-.8-3m6.9 3.7v-12.7h2.1v1.9q1.3-2.3 3.8-2.3.8 0 1.2.4v1.9q-.5-.2-1.3-.2-1.9 0-2.8 1-.9 1.1-.9 2.9v7.1zm10.7-8.6h-2.1q.3-2.1 1.6-3.3t3.7-1.2 3.8 1.4 1.3 3.6v5q0 2.2.4 3.1h-2.2q-.3-.6-.3-2-.8 1.1-2 1.7t-2.4.6q-2 0-3.2-.9t-1.2-2.8q0-2.7 2.9-3.6 2.1-.7 5.9-.8v-.2q0-3.2-3.2-3.2-2.6 0-3 2.6m-.4 5.2q0 .9.7 1.4t1.8.5q1.7 0 2.9-1.2t1.2-2.9v-.6q-3.8.1-5.2.8t-1.4 2m13.7-6.1q0 1 .9 1.5t2 .6l2.5.5q1.2.2 2 1t.9 2.3q0 1.8-1.4 2.8-1.4 1.1-3.7 1.1t-3.8-1.1-1.8-3.4h2.1q.2 1.4 1.1 2.1t2.4.7 2.2-.6.8-1.5-.6-1.2q-.6-.5-1.5-.7l-2-.3-2-.5q-.9-.3-1.5-1.1t-.6-2q0-1.6 1.2-2.7t3.4-1.1 3.6 1.1 1.6 3.4h-2.1q-.2-1.5-1-2.1t-2.2-.6q-1.1 0-1.8.5t-.7 1.3m11.1 5.8v-7.4h-1.8v-1.6h1.8v-3h2.1v3h2.8v1.6h-2.8v7.4q0 1.2.5 1.8.5.5 1.8.5h.5v1.5q-.4.2-1.4.2-1.8 0-2.6-1t-.9-3m10.2-7.4v-1.6h1.7v-.9q0-2 .9-3t2.6-1q.7 0 1.2.2v1.5h-.2q-1.4 0-1.9.6t-.4 1.7v.9h2.5v1.6h-2.5V166h-2.2v-11.1zm8.1-3.3v-2.9h2.1v2.9zm0 14.4v-12.7h2.1V166zm13.5 0-3-4.2-.6-1-.7 1-2.9 4.2h-2.4l4.8-6.6-4.4-6.1h2.6l2.6 3.7.7 1 .6-1 2.6-3.7h2.4l-4.5 6.1 4.9 6.6zm15.1-4.2q-.5 2.2-2 3.4t-3.7 1.1q-2.8 0-4.4-1.8-1.5-1.7-1.5-4.9t1.5-4.9q1.6-1.8 4.3-1.8t4.2 1.8 1.5 4.8v.5h-9.4q.1 2.1 1.1 3.3t2.7 1.2q2.9 0 3.5-2.7zm-5.8-7q-3.1 0-3.6 3.6h7.1q-.2-1.7-1.1-2.7-.9-.9-2.4-.9m10.1 1.7q0 1 .9 1.5t2 .6l2.5.5q1.2.2 2 1t.9 2.3q0 1.8-1.4 2.8-1.4 1.1-3.7 1.1t-3.8-1.1-1.8-3.4h2.1q.2 1.4 1.1 2.1t2.5.7q1.3 0 2.1-.6t.8-1.5-.6-1.2q-.6-.5-1.5-.7l-2-.3-2-.5q-.9-.3-1.5-1.1t-.6-2q0-1.6 1.2-2.7t3.4-1.1 3.6 1.1 1.6 3.4h-2.1q-.2-1.5-1-2.1t-2.2-.6q-1.1 0-1.8.5t-.7 1.3"/></svg>