<svg xmlns="http://www.w3.org/2000/svg" width="260" height="204" viewBox="0 0 260 204"><rect width="258.5" height="202.5" x=".8" y=".8" fill="#1E1616" stroke="#472F2F" stroke-width="1.5" rx="6"/><path fill="#F2A76E" d="M21.8 46V30.7h4.8q1.4 0 2.5.5t1.7 1.6.6 2.4q0 1.5-.8 2.6t-2.2 1.6l3.2 6.6H29l-2.8-6.3H24V46zm2.2-8.3h2.6q1.1 0 1.8-.7t.7-1.8q0-1.2-.7-1.8t-1.8-.7H24zm14.9 8.5q-1.4 0-2.5-.5-1-.6-1.6-1.6t-.6-2.4v-3q0-1.4.6-2.3.6-1 1.6-1.6 1.1-.6 2.5-.6t2.5.6q1 .6 1.6 1.6t.6 2.3v2.1h-7.2v.9q0 1.3.7 2t1.8.7 1.6-.4.8-1h2.2q-.2 1.5-1.5 2.3-1.3.9-3.1.9m2.5-6.8v-.7q0-1.3-.7-2t-1.8-.7-1.8.7-.7 2v.5h5.1zM47 49.8V34.5h2.2v2.2h.5l-.5.5q0-1.4.9-2.2t2.2-.8q1.8 0 2.8 1.2 1.1 1.2 1.1 3.2v3.2q0 1.4-.5 2.4t-1.3 1.5-2.1.5-2.2-.8-.9-2.1l.5.5h-.5v6zm4.6-5.6q1.1 0 1.7-.6t.6-1.9v-3q0-1.2-.6-1.9t-1.7-.6-1.7.7q-.7.6-.7 1.8v3q0 1.2.7 1.9t1.7.6m12.5 2q-1.4 0-2.5-.6-1-.5-1.6-1.5t-.6-2.4v-3q0-1.4.6-2.3.6-1 1.6-1.6 1.1-.5 2.5-.5t2.5.5q1 .6 1.6 1.6t.6 2.3v3q0 1.4-.6 2.4t-1.6 1.5q-1.1.6-2.5.6m0-2q1.2 0 1.8-.7t.6-1.8v-3q0-1.2-.6-1.8t-1.8-.6q-1.1 0-1.8.6t-.6 1.8v3q0 1.2.6 1.8t1.8.7m12.2 2q-1.2 0-2.2-.4-.9-.4-1.5-1.1T72 43h2.3q.1.6.6.9t1.4.4h.9q1 0 1.6-.4.5-.5.5-1.2t-.5-1-1.4-.5l-1.5-.3q-1.8-.3-2.7-1-.9-.8-.9-2.3 0-1.6 1.1-2.5 1-.8 3-.8h.8q1.9 0 2.9.8 1.1.8 1.3 2.2h-2.3q-.1-.5-.6-.8t-1.3-.3h-.8q-.9 0-1.4.4-.4.3-.4 1t.4 1 1.2.4l1.5.3q2 .2 2.9 1.1.9.7.9 2.3t-1.1 2.6-3.2.9zm8.4-.2v-2.1h4.1v-7.4h-3.6v-2H91v9.4h3.7V46zm4.9-13.5q-.7 0-1.1-.4T88 31q0-.6.5-1t1.1-.4q.8 0 1.2.4.5.4.5 1t-.5 1.1q-.4.4-1.2.4M103.2 46q-1.6 0-2.5-.9t-.9-2.4v-6.2h-3.2v-2h3.2v-3.3h2.3v3.3h4.5v2h-4.5v6.2q0 1.2 1.1 1.2h3.2V46zm11.3.2q-1.4 0-2.5-.6-1-.5-1.6-1.5t-.6-2.4v-3q0-1.4.6-2.3.6-1 1.6-1.6 1.1-.5 2.5-.5t2.5.5q1 .6 1.6 1.6t.6 2.3v3q0 1.4-.6 2.4t-1.6 1.5q-1.1.6-2.5.6m0-2q1.2 0 1.8-.7t.6-1.8v-3q0-1.2-.6-1.8t-1.8-.6-1.8.6-.6 1.8v3q0 1.2.6 1.8t1.8.7m8.4 1.8V34.5h2.2v2.2h.6L125 38q0-1.8.8-2.8t2.4-1q1.9 0 3 1.2 1 1.1 1 3.1v.8h-2.3v-.6q0-1.2-.6-1.9t-1.7-.6-1.8.6-.6 1.9V46zm12.2 0v-2.1h4.1v-7.4h-3.6v-2h5.8v9.4h3.7V46zm4.9-13.5q-.7 0-1.1-.4t-.5-1.1q0-.6.5-1t1.1-.4q.8 0 1.2.4.5.4.5 1t-.5 1.1q-.4.4-1.2.4m12.3 13.7q-1.4 0-2.5-.5-1-.6-1.6-1.6t-.6-2.4v-3q0-1.4.6-2.3.6-1 1.6-1.6 1.1-.6 2.5-.6t2.5.6 1.6 1.6q.6.9.6 2.3v2.1h-7.2v.9q0 1.3.7 2t1.8.7q1 0 1.6-.4.6-.3.8-1h2.2q-.2 1.5-1.5 2.3-1.3.9-3.1.9m2.5-6.8v-.7q0-1.3-.7-2t-1.8-.7-1.8.7-.7 2v.5h5.1zm9.7 6.8q-1.2 0-2.2-.4-.9-.4-1.5-1.1t-.6-1.7h2.3q.1.6.6.9t1.4.4h.9q1 0 1.6-.4.5-.5.5-1.2t-.5-1-1.4-.5l-1.5-.3q-1.8-.3-2.7-1-.9-.8-.9-2.3 0-1.6 1.1-2.5 1-.8 3-.8h.8q1.9 0 2.9.8 1.1.8 1.3 2.2h-2.3q-.1-.5-.6-.8t-1.3-.3h-.8q-.9 0-1.4.4-.4.3-.4 1t.4 1 1.2.4l1.5.3q2 .2 2.9 1.1.9.7.9 2.3t-1.1 2.6-3.2.9z"/><path fill="#F7F2ED" d="M24 118V88.7h-5v-7.9q2.4 0 4.1-1t2.2-4h7.9V118zm15.8 0q0-4.4.9-9t2.7-9 4.2-8.7q2.6-4.1 5.9-7.7v-.3H34.8v-7.6h27v7.5q-2.3 2.8-4.5 6.6t-3.9 8.4-2.7 9.6-1 10.2zm27.6 0q0-4.4.9-9t2.7-9 4.2-8.7q2.6-4.1 5.8-7.7v-.3H62.4v-7.6h27v7.5q-2.3 2.8-4.5 6.6T81 98.2t-2.7 9.6-1 10.2z"/><rect width="30" height="5" x="20" y="132" fill="#F2A76E" rx="2.5"/><path fill="#C7B4B0" d="M22.8 165v-10.9h-2.1v-2q1 0 1.7-.3t.9-1.3H25V165zm4.7-3.1v-2.4l1.9-2.2 1.7-2.3 1.4-2.3.9-2.2h3.9V165h-2.2v-12.9h-.2l-1.5 3-1.8 2.5-1.9 2.2v.3h9.4v1.8zm13.6 0v-2.4l2-2.2 1.6-2.3 1.4-2.3 1-2.2h3.8V165h-2.2v-12.9h-.1q-.7 1.6-1.6 3-.8 1.4-1.8 2.5t-1.9 2.2v.3h9.5v1.8zm19.6 6.7v-15h1.9l-.1 3h.4q.2-1 .7-1.8.4-.7 1.2-1.1t1.8-.4q1.6 0 2.6.8 1.1.8 1.6 2.1t.5 3.1q0 1.7-.5 3.1-.5 1.3-1.5 2.1-1.1.8-2.5.8-1.2 0-2-.5t-1.2-1.3-.8-1.7h-.4l.3 1.2.1 1.3.1 1.2v3.1zm5.5-5.2q.9 0 1.5-.5t1-1.5.4-2.1q0-1.3-.4-2.2-.3-.9-1-1.4t-1.6-.5-1.4.4-1 .9-.6 1.3l-.2 1.3v.3l.1 1 .4 1.1q.2.5.6.9t.9.8q.6.2 1.3.2m7.9 1.6v-11.4h2l-.2 3.9h.4q.2-1.3.6-2.2.5-.9 1.2-1.5t1.7-.5h.5l.6.2-.1 2.3-.6-.2-.7-.1q-.8 0-1.5.6t-1 1.4l-.7 2v5.5zm9 0v-11.4h2.2V165zm1.1-13.4q-.8 0-1.1-.3t-.4-.9.4-.9q.3-.3 1.1-.3.7 0 1.1.3.3.3.3.9t-.3.9q-.4.3-1.1.3m7.2 13.4-4-11.4h2.4l3 9.6h.3l3-9.6h2.4L94.4 165zm11.6.3q-1 0-1.7-.4-.8-.3-1.2-1.1-.4-.7-.4-1.8 0-.8.2-1.4.4-.7 1-1.1t1.6-.7l2.4-.5 1.4-.2q.4-.1.7-.4.2-.2.2-.7 0-.8-.5-1.3t-1.8-.6l-1.2.2q-.7.2-1.1.7-.5.6-.7 1.4l-2-.6q.2-.8.6-1.5l1.1-1.1 1.5-.7q.9-.2 1.9-.2 1.5 0 2.5.5t1.4 1.5.5 2.6v2.5l.1 1.5v1.6l.2 1.5h-2l-.2-1.4v-1.4h-.4q-.3.8-.8 1.5t-1.4 1.1-1.9.5m.7-1.8.9-.1 1-.5q.5-.3.9-.8l.8-1.3v-2.2l.5.2q-.3.3-.9.5l-1.3.2-1.3.3-1.3.3q-.5.2-.9.6-.3.4-.3 1.1 0 .9.5 1.3t1.4.4m12.6 1.7q-1.6 0-2.4-.9t-.8-2.7v-6.2h-1.7l.1-1.8h1q.6 0 .9-.2.2-.2.3-.7l.2-1.7h1.3v2.6h3.3v1.9h-3.3v6.1q0 .8.4 1.2t1.2.4l.9-.1.8-.4v2.1l-1.2.4zm9.5.1q-1.4 0-2.4-.4-1.1-.4-1.8-1.2t-1-1.8q-.4-1.1-.4-2.4 0-1.4.4-2.5.3-1.1 1-1.9.7-.9 1.7-1.3t2.3-.5 2.1.4 1.6 1.2 1 1.9.3 2.8l-9 .1v-1.4l7.6-.1-.7.9q.1-1.3-.3-2.2-.3-.9-1-1.3t-1.6-.5-1.7.6q-.8.5-1.2 1.4-.4 1-.4 2.4 0 2 .9 3t2.6 1l1.2-.1.8-.5q.4-.3.6-.7l.4-.8 1.9.5q-.2.8-.6 1.4t-1 1.1-1.5.6q-.8.3-1.8.3m-99.7 27q-1.3 0-2.3-.3t-1.7-.8-1-1.4-.4-1.7l2-.6q.1.8.4 1.4t.8.9 1.1.6l1.1.1q1 0 1.8-.3t1.3-.8.5-1.6-.7-1.9q-.8-.7-2.1-.9t-3.2-.2v-1.4l5.1-3.9v-.2h-7.5v-1.8H31v2.3l-4.7 3.6v.2q2 0 3.3.5t1.7 1.5q.6 1 .6 2.2 0 1.4-.7 2.4t-1.9 1.6-3.2.5m13.3 0q-1.3 0-2.3-.3t-1.7-.8q-.6-.6-1-1.4-.3-.8-.4-1.7l2.1-.6q0 .8.3 1.4t.8.9 1.1.6l1.2.1q1 0 1.8-.3t1.2-.8.5-1.6-.7-1.9-2.1-.9q-1.3-.3-3.1-.2v-1.4l5.1-3.9v-.2h-7.6v-1.8h9.8v2.3l-4.8 3.6v.2q2.1 0 3.3.5t1.8 1.5q.5 1 .5 2.2 0 1.4-.6 2.4t-1.9 1.6-3.3.5m14.2 3.3v-15h1.9l-.1 3h.4q.2-1 .7-1.8.4-.7 1.2-1.1t1.8-.4q1.6 0 2.6.8 1.1.8 1.6 2.1t.5 3.1q0 1.7-.5 3.1-.5 1.3-1.5 2.1-1.1.8-2.6.8-1.1 0-1.9-.5t-1.2-1.3-.8-1.7h-.4l.3 1.2.1 1.3.1 1.2v3.1zm5.5-5.2q.9 0 1.5-.5t1-1.5.4-2.1q0-1.3-.4-2.2-.3-.9-1-1.4t-1.6-.5q-.8 0-1.4.4-.6.3-1 .9t-.6 1.3l-.2 1.3v.3l.1 1 .4 1.1q.2.5.6.9t.9.8q.6.2 1.3.2m11.7 1.9q-2 0-2.9-1.3-1-1.4-1-4v-6.4h2.2v6.2q0 1.8.6 2.7t1.7.9q.7 0 1.2-.4.6-.3.9-.9l.7-1.4.3-1.8v-5.3h2.2V192h-1.9l.2-3.7h-.4q-.3 1.4-.8 2.3t-1.3 1.3-1.7.4m15.4 0q-1.1 0-1.9-.5t-1.3-1.2-.7-1.7H82v3.1h-1.9v-15.5h2.2v4.8l-.2 1.3-.2 1.3h.4q.2-1 .7-1.8t1.3-1.3 1.9-.5q1.4 0 2.5.8 1 .7 1.5 2.1.6 1.3.6 3.1t-.6 3.1-1.5 2.1-2.5.8m-.6-1.9q.9 0 1.6-.5.6-.5 1-1.4.3-.9.3-2.2 0-1.2-.3-2.1-.4-.9-1-1.5t-1.6-.5q-.7 0-1.2.3t-.9.7l-.7.9-.4 1.1-.1 1v.3l.2 1.3q.2.7.7 1.3t1 .9 1.4.4m8 1.6v-15.5h2.2V192zm5.6 0v-11.4h2.2V192zm1.1-13.4q-.8 0-1.1-.3t-.4-.9q0-.6.4-.9.3-.3 1.1-.3.7 0 1.1.3t.4.9-.4.9-1.1.3m9.4 13.7q-1.5 0-2.5-.5-1.1-.5-1.8-1.3t-.9-1.8-.3-2.3.3-2.4 1-1.9 1.7-1.3 2.4-.5 2.3.5 1.6 1.2q.7.8.9 2l-2.1.6q-.1-.7-.4-1.2t-.9-.9-1.5-.4-1.3.4q-.6.3-1 .8t-.6 1.4q-.2.7-.2 1.7 0 1.2.3 2.1.4 1 1.1 1.5t1.9.5q.9 0 1.6-.3.6-.4.9-.9t.5-1.3l2 .4q-.2.9-.6 1.7t-1 1.2-1.5.7-1.9.3"/></svg>